<?xml version="1.0" encoding="UTF-8" standalone="no"?>
<!DOCTYPE svg PUBLIC "-//W3C//DTD SVG 1.1//EN"
 "http://www.w3.org/Graphics/SVG/1.1/DTD/svg11.dtd">
<!-- Generated by graphviz version 2.26.3 (20100126.1600)
 -->
<!-- Title: LayoutValidation Pages: 1 -->
<svg width="296pt" height="206pt"
 viewBox="0.00 0.00 296.43 206.43" xmlns="http://www.w3.org/2000/svg" xmlns:xlink="http://www.w3.org/1999/xlink">
<g id="graph1" class="graph" transform="scale(1 1) rotate(0) translate(4 202.428)">
<title>LayoutValidation</title>
<polygon fill="white" stroke="white" points="-4,5 -4,-202.428 293.428,-202.428 293.428,5 -4,5"/>
<!-- state1 -->
<g id="node1" class="node"><title>state1</title>
<ellipse fill="lightcoral" stroke="lightcoral" cx="99.2141" cy="-19" rx="18" ry="18"/>
<text text-anchor="middle" x="99.2141" y="-17.3" font-family="Verdana" font-size="8.00">1</text>
</g>
<!-- state2 -->
<g id="node2" class="node"><title>state2</title>
<ellipse fill="orange" stroke="orange" cx="19" cy="-99.2141" rx="18" ry="18"/>
<text text-anchor="middle" x="19" y="-97.5141" font-family="Verdana" font-size="8.00">2</text>
</g>
<!-- state1&#45;&gt;state2 -->
<g id="edge8" class="edge"><title>state1&#45;&gt;state2</title>
<path fill="none" stroke="black" d="M86.3263,-31.8878C73.5794,-44.6347 53.8872,-64.3269 39.0868,-79.1273"/>
<polygon fill="black" stroke="black" points="36.452,-76.8123 31.8558,-86.3583 41.4018,-81.7621 36.452,-76.8123"/>
<text text-anchor="middle" x="73.7066" y="-65.6075" font-family="Verdana" font-size="6.00">validate()</text>
</g>
<!-- state3 -->
<g id="node3" class="node"><title>state3</title>
<ellipse fill="#caff70" stroke="#caff70" cx="99.2141" cy="-179.428" rx="18" ry="18"/>
<text text-anchor="middle" x="99.2141" y="-177.728" font-family="Verdana" font-size="8.00">3</text>
</g>
<!-- state2&#45;&gt;state3 -->
<g id="edge10" class="edge"><title>state2&#45;&gt;state3</title>
<path fill="none" stroke="black" d="M31.8878,-112.102C44.6347,-124.849 64.3269,-144.541 79.1273,-159.341"/>
<polygon fill="black" stroke="black" points="76.8123,-161.976 86.3583,-166.572 81.7621,-157.026 76.8123,-161.976"/>
<text text-anchor="middle" x="66.5075" y="-123.822" font-family="Verdana" font-size="6.00">validated()</text>
</g>
<!-- choise -->
<g id="node5" class="node"><title>choise</title>
<polygon fill="yellow" stroke="yellow" points="179.428,-117.214 152.428,-99.2141 179.428,-81.2141 206.428,-99.2141 179.428,-117.214"/>
</g>
<!-- state3&#45;&gt;choise -->
<g id="edge2" class="edge"><title>state3&#45;&gt;choise</title>
<path fill="none" stroke="black" d="M112.102,-166.54C125.377,-153.266 146.184,-132.458 161.154,-117.488"/>
<polygon fill="black" stroke="black" points="163.784,-119.808 168.38,-110.262 158.834,-114.858 163.784,-119.808"/>
<text text-anchor="middle" x="125.628" y="-130.114" font-family="Verdana" font-size="6.00">prop changed</text>
</g>
<!-- state4 -->
<g id="node4" class="node"><title>state4</title>
<ellipse fill="lightcoral" stroke="lightcoral" cx="269.428" cy="-99.2141" rx="18" ry="18"/>
<text text-anchor="middle" x="269.428" y="-97.5141" font-family="Verdana" font-size="8.00">4</text>
</g>
<!-- choise&#45;&gt;state1 -->
<g id="edge4" class="edge"><title>choise&#45;&gt;state1</title>
<path fill="none" stroke="black" d="M168.61,-88.3961C155.968,-75.754 134.79,-54.5754 119.147,-38.9328"/>
<polygon fill="black" stroke="black" points="121.52,-36.3562 111.974,-31.76 116.57,-41.306 121.52,-36.3562"/>
<text text-anchor="middle" x="154.879" y="-51.7644" font-family="Verdana" font-size="6.00">parent stays valid</text>
</g>
<!-- choise&#45;&gt;state4 -->
<g id="edge6" class="edge"><title>choise&#45;&gt;state4</title>
<path fill="none" stroke="black" d="M206.431,-99.2141C217.418,-99.2141 230.118,-99.2141 241.224,-99.2141"/>
<polygon fill="black" stroke="black" points="241.276,-102.714 251.276,-99.2141 241.276,-95.7142 241.276,-102.714"/>
<text text-anchor="middle" x="223.828" y="-103.314" font-family="Verdana" font-size="6.00">parent invalid</text>
</g>
</g>
</svg>
