<?xml version="1.0" encoding="UTF-8" standalone="no"?>
<!DOCTYPE svg PUBLIC "-//W3C//DTD SVG 1.1//EN"
 "http://www.w3.org/Graphics/SVG/1.1/DTD/svg11.dtd">
<!-- Generated by graphviz version 2.26.3 (20100126.1600)
 -->
<!-- Title: LayoutClient_UML Pages: 1 -->
<svg width="496pt" height="364pt"
 viewBox="0.00 0.00 496.00 364.00" xmlns="http://www.w3.org/2000/svg" xmlns:xlink="http://www.w3.org/1999/xlink">
<g id="graph1" class="graph" transform="scale(1 1) rotate(0) translate(4 360)">
<title>LayoutClient_UML</title>
<polygon fill="white" stroke="white" points="-4,5 -4,-360 493,-360 493,5 -4,5"/>
<g id="graph2" class="cluster"><title>cluster_0</title>
<polygon fill="none" stroke="black" points="8,-152 8,-348 338,-348 338,-152 8,-152"/>
</g>
<g id="graph3" class="cluster"><title>cluster_1</title>
<polygon fill="none" stroke="black" points="350,-8 350,-276 480,-276 480,-8 350,-8"/>
</g>
<!-- LayoutClient -->
<g id="node1" class="node"><title>LayoutClient</title>
<polygon fill="none" stroke="black" points="472,-268 402,-268 402,-232 472,-232 472,-268"/>
<text text-anchor="middle" x="437" y="-248.3" font-family="Verdana" font-size="8.00">LayoutClient</text>
</g>
<!-- AdvancedLayoutClient -->
<g id="node3" class="node"><title>AdvancedLayoutClient</title>
<polygon fill="none" stroke="black" points="471,-196 359,-196 359,-160 471,-160 471,-196"/>
<text text-anchor="middle" x="415" y="-176.3" font-family="Verdana" font-size="8.00">AdvancedLayoutClient</text>
</g>
<!-- LayoutClient&#45;&gt;AdvancedLayoutClient -->
<g id="edge12" class="edge"><title>LayoutClient&#45;&gt;AdvancedLayoutClient</title>
<path fill="none" stroke="black" d="M428.486,-222.136C425.851,-213.511 423.014,-204.229 420.626,-196.413"/>
<polygon fill="black" stroke="black" points="425.179,-223.291 431.448,-231.831 431.873,-221.245 425.179,-223.291"/>
</g>
<!-- LayoutContainer -->
<g id="node2" class="node"><title>LayoutContainer</title>
<polygon fill="none" stroke="black" points="451,-124 365,-124 365,-88 451,-88 451,-124"/>
<text text-anchor="middle" x="408" y="-104.3" font-family="Verdana" font-size="8.00">LayoutContainer</text>
</g>
<!-- VirtualLayoutContainer -->
<g id="node4" class="node"><title>VirtualLayoutContainer</title>
<polygon fill="none" stroke="black" points="472,-52 358,-52 358,-16 472,-16 472,-52"/>
<text text-anchor="middle" x="415" y="-32.3" font-family="Verdana" font-size="8.00">VirtualLayoutContainer</text>
</g>
<!-- LayoutContainer&#45;&gt;VirtualLayoutContainer -->
<g id="edge16" class="edge"><title>LayoutContainer&#45;&gt;VirtualLayoutContainer</title>
<path fill="none" stroke="black" d="M410.736,-77.8545C411.567,-69.3097 412.458,-60.1442 413.21,-52.4133"/>
<polygon fill="black" stroke="black" points="407.251,-77.5396 409.766,-87.8314 414.218,-78.217 407.251,-77.5396"/>
</g>
<!-- AdvancedLayoutClient&#45;&gt;LayoutContainer -->
<g id="edge14" class="edge"><title>AdvancedLayoutClient&#45;&gt;LayoutContainer</title>
<path fill="none" stroke="black" d="M412.264,-149.854C411.433,-141.31 410.542,-132.144 409.79,-124.413"/>
<polygon fill="black" stroke="black" points="408.782,-150.217 413.234,-159.831 415.749,-149.54 408.782,-150.217"/>
</g>
<!-- ILayoutClient -->
<g id="node5" class="node"><title>ILayoutClient</title>
<ellipse fill="#dbdbdb" stroke="#dbdbdb" cx="262" cy="-322" rx="43.0604" ry="18"/>
<text text-anchor="middle" x="262" y="-320.3" font-family="Verdana" font-size="8.00">ILayoutClient</text>
</g>
<!-- ILayoutClient&#45;&gt;LayoutClient -->
<g id="edge18" class="edge"><title>ILayoutClient&#45;&gt;LayoutClient</title>
<path fill="none" stroke="black" stroke-dasharray="1,5" d="M302.256,-305.438C332.364,-293.05 373.132,-276.277 401.916,-264.435"/>
<polygon fill="black" stroke="black" points="300.8,-302.252 292.884,-309.294 303.463,-308.725 300.8,-302.252"/>
</g>
<!-- IAdvancedLayoutClient -->
<g id="node6" class="node"><title>IAdvancedLayoutClient</title>
<ellipse fill="#dbdbdb" stroke="#dbdbdb" cx="262" cy="-250" rx="67.7865" ry="18"/>
<text text-anchor="middle" x="262" y="-248.3" font-family="Verdana" font-size="8.00">IAdvancedLayoutClient</text>
</g>
<!-- ILayoutClient&#45;&gt;IAdvancedLayoutClient -->
<g id="edge3" class="edge"><title>ILayoutClient&#45;&gt;IAdvancedLayoutClient</title>
<path fill="none" stroke="black" stroke-dasharray="5,2" d="M262,-293.573C262,-285.108 262,-276.059 262,-268.413"/>
<polygon fill="black" stroke="black" points="258.5,-293.831 262,-303.831 265.5,-293.831 258.5,-293.831"/>
</g>
<!-- ILayoutContainer -->
<g id="node7" class="node"><title>ILayoutContainer</title>
<ellipse fill="#dbdbdb" stroke="#dbdbdb" cx="69" cy="-250" rx="53.0677" ry="18"/>
<text text-anchor="middle" x="69" y="-248.3" font-family="Verdana" font-size="8.00">ILayoutContainer</text>
</g>
<!-- ILayoutClient&#45;&gt;ILayoutContainer -->
<g id="edge5" class="edge"><title>ILayoutClient&#45;&gt;ILayoutContainer</title>
<path fill="none" stroke="black" stroke-dasharray="5,2" d="M219.924,-306.303C185.475,-293.452 137.275,-275.471 104.689,-263.314"/>
<polygon fill="black" stroke="black" points="219.104,-309.733 229.696,-309.949 221.55,-303.174 219.104,-309.733"/>
</g>
<!-- IAdvancedLayoutClient&#45;&gt;AdvancedLayoutClient -->
<g id="edge20" class="edge"><title>IAdvancedLayoutClient&#45;&gt;AdvancedLayoutClient</title>
<path fill="none" stroke="black" stroke-dasharray="1,5" d="M304.907,-229.809C327.442,-219.204 354.829,-206.316 376.651,-196.047"/>
<polygon fill="black" stroke="black" points="303.134,-226.774 295.576,-234.199 306.115,-233.108 303.134,-226.774"/>
</g>
<!-- IScrollableLayout -->
<g id="node8" class="node"><title>IScrollableLayout</title>
<ellipse fill="#dbdbdb" stroke="#dbdbdb" cx="88" cy="-178" rx="53.0677" ry="18"/>
<text text-anchor="middle" x="88" y="-176.3" font-family="Verdana" font-size="8.00">IScrollableLayout</text>
</g>
<!-- IAdvancedLayoutClient&#45;&gt;IScrollableLayout -->
<g id="edge9" class="edge"><title>IAdvancedLayoutClient&#45;&gt;IScrollableLayout</title>
<path fill="none" stroke="black" stroke-dasharray="5,2" d="M215.823,-230.892C186.3,-218.676 148.667,-203.104 121.897,-192.026"/>
<polygon fill="black" stroke="black" points="214.521,-234.141 225.099,-234.731 217.197,-227.673 214.521,-234.141"/>
</g>
<!-- ILayoutContainer&#45;&gt;LayoutContainer -->
<g id="edge22" class="edge"><title>ILayoutContainer&#45;&gt;LayoutContainer</title>
<path fill="none" stroke="black" stroke-dasharray="1,5" d="M111.682,-231.87C176.86,-204.183 300.468,-151.678 365.523,-124.043"/>
<polygon fill="black" stroke="black" points="109.958,-228.799 102.122,-235.93 112.694,-235.242 109.958,-228.799"/>
</g>
<!-- ILayoutContainer&#45;&gt;IScrollableLayout -->
<g id="edge7" class="edge"><title>ILayoutContainer&#45;&gt;IScrollableLayout</title>
<path fill="none" stroke="black" stroke-dasharray="5,2" d="M76.353,-222.136C78.629,-213.511 81.0784,-204.229 83.1409,-196.413"/>
<polygon fill="black" stroke="black" points="72.962,-221.269 73.7945,-231.831 79.7303,-223.055 72.962,-221.269"/>
</g>
<!-- IScrollableLayout&#45;&gt;LayoutContainer -->
<g id="edge24" class="edge"><title>IScrollableLayout&#45;&gt;LayoutContainer</title>
<path fill="none" stroke="black" stroke-dasharray="1,5" d="M140.793,-164.887C158.049,-160.677 177.321,-156.056 195,-152 253.629,-138.548 321.596,-124.061 364.685,-115.014"/>
<polygon fill="black" stroke="black" points="139.774,-161.533 130.894,-167.311 141.439,-168.332 139.774,-161.533"/>
</g>
</g>
</svg>
