<?xml version="1.0" encoding="UTF-8" standalone="no"?>
<!DOCTYPE svg PUBLIC "-//W3C//DTD SVG 1.1//EN"
 "http://www.w3.org/Graphics/SVG/1.1/DTD/svg11.dtd">
<!-- Generated by graphviz version 2.26.3 (20100126.1600)
 -->
<!-- Title: LayoutActors Pages: 1 -->
<svg width="468pt" height="242pt"
 viewBox="0.00 0.00 468.00 242.00" xmlns="http://www.w3.org/2000/svg" xmlns:xlink="http://www.w3.org/1999/xlink">
<g id="graph1" class="graph" transform="scale(1 1) rotate(0) translate(4 238)">
<title>LayoutActors</title>
<polygon fill="white" stroke="white" points="-4,5 -4,-238 465,-238 465,5 -4,5"/>
<g id="graph2" class="cluster"><title>cluster_0</title>
<polygon fill="lightgrey" stroke="lightgrey" points="8,-80 8,-226 168,-226 168,-80 8,-80"/>
<text text-anchor="middle" x="88" y="-213" font-family="Verdana" font-size="10.00">Application</text>
</g>
<g id="graph3" class="cluster"><title>cluster_1</title>
<polygon fill="none" stroke="blue" points="176,-8 176,-153 452,-153 452,-8 176,-8"/>
<text text-anchor="middle" x="314" y="-140" font-family="Verdana" font-size="10.00">LayoutClients</text>
</g>
<!-- contA -->
<g id="node2" class="node"><title>contA</title>
<ellipse fill="white" stroke="white" cx="123" cy="-179" rx="37.0858" ry="18"/>
<text text-anchor="middle" x="123" y="-177.3" font-family="Verdana" font-size="8.00">MenuBar A</text>
</g>
<!-- buttonB -->
<g id="node3" class="node"><title>buttonB</title>
<ellipse fill="white" stroke="white" cx="47" cy="-106" rx="31.1991" ry="18"/>
<text text-anchor="middle" x="47" y="-104.3" font-family="Verdana" font-size="8.00">Button B</text>
</g>
<!-- contA&#45;&gt;buttonB -->
<g id="edge3" class="edge"><title>contA&#45;&gt;buttonB</title>
<path fill="none" stroke="black" d="M101.019,-164.409C96.2264,-160.881 91.3048,-156.975 87,-153 79.6003,-146.167 72.2417,-138.015 65.8916,-130.434"/>
<polygon fill="black" stroke="black" points="68.4735,-128.062 59.4428,-122.522 63.0474,-132.485 68.4735,-128.062"/>
</g>
<!-- buttonC -->
<g id="node4" class="node"><title>buttonC</title>
<ellipse fill="white" stroke="white" cx="128" cy="-106" rx="31.7878" ry="18"/>
<text text-anchor="middle" x="128" y="-104.3" font-family="Verdana" font-size="8.00">Button C</text>
</g>
<!-- contA&#45;&gt;buttonC -->
<g id="edge5" class="edge"><title>contA&#45;&gt;buttonC</title>
<path fill="none" stroke="black" d="M124.236,-160.955C124.789,-152.883 125.454,-143.176 126.07,-134.182"/>
<polygon fill="black" stroke="black" points="129.569,-134.306 126.761,-124.09 122.586,-133.828 129.569,-134.306"/>
</g>
<!-- layoutA -->
<g id="node8" class="node"><title>layoutA</title>
<ellipse fill="lightgrey" stroke="black" cx="257" cy="-106" rx="31.7878" ry="18"/>
<text text-anchor="middle" x="257" y="-104.3" font-family="Verdana" font-size="8.00">Layout A</text>
</g>
<!-- contA&#45;&gt;layoutA -->
<g id="edge14" class="edge"><title>contA&#45;&gt;layoutA</title>
<path fill="none" stroke="black" stroke-dasharray="5,2" d="M148.224,-165.723C155.875,-161.666 164.294,-157.174 172,-153 193.054,-141.594 216.904,-128.381 233.97,-118.875"/>
</g>
<!-- layoutB -->
<g id="node9" class="node"><title>layoutB</title>
<ellipse fill="lightgrey" stroke="black" cx="216" cy="-34" rx="31.7878" ry="18"/>
<text text-anchor="middle" x="216" y="-32.3" font-family="Verdana" font-size="8.00">Layout B</text>
</g>
<!-- buttonB&#45;&gt;layoutB -->
<g id="edge16" class="edge"><title>buttonB&#45;&gt;layoutB</title>
<path fill="none" stroke="black" stroke-dasharray="5,2" d="M66.8063,-91.8206C73.0834,-87.6874 80.1703,-83.3791 87,-80 120.139,-63.6038 160.615,-50.1542 187.288,-42.1211"/>
</g>
<!-- layoutC -->
<g id="node10" class="node"><title>layoutC</title>
<ellipse fill="lightgrey" stroke="black" cx="298" cy="-34" rx="31.8784" ry="18"/>
<text text-anchor="middle" x="298" y="-32.3" font-family="Verdana" font-size="8.00">Layout C</text>
</g>
<!-- buttonC&#45;&gt;layoutC -->
<g id="edge18" class="edge"><title>buttonC&#45;&gt;layoutC</title>
<path fill="none" stroke="black" stroke-dasharray="5,2" d="M148.988,-92.3511C156.116,-88.0557 164.243,-83.5196 172,-80 208.22,-63.5652 219.859,-66.2329 257,-52 262.227,-49.9971 267.756,-47.697 273.005,-45.4253"/>
</g>
<!-- layoutA&#45;&gt;layoutB -->
<g id="edge8" class="edge"><title>layoutA&#45;&gt;layoutB</title>
<path fill="none" stroke="black" d="M247.075,-88.5708C242.19,-79.9922 236.202,-69.4762 230.79,-59.9732"/>
<polygon fill="black" stroke="black" points="233.823,-58.2266 225.834,-51.2687 227.741,-61.6905 233.823,-58.2266"/>
</g>
<!-- layoutA&#45;&gt;layoutC -->
<g id="edge10" class="edge"><title>layoutA&#45;&gt;layoutC</title>
<path fill="none" stroke="black" d="M266.925,-88.5708C271.81,-79.9922 277.798,-69.4762 283.21,-59.9732"/>
<polygon fill="black" stroke="black" points="286.259,-61.6905 288.166,-51.2687 280.177,-58.2266 286.259,-61.6905"/>
</g>
<!-- algo -->
<g id="node11" class="node"><title>algo</title>
<polygon fill="lightblue" stroke="lightblue" points="444,-52 348,-52 348,-16 444,-16 444,-52"/>
<text text-anchor="middle" x="396" y="-32.3" font-family="Verdana" font-size="8.00">float&#45;left&#45;algorithm</text>
</g>
<!-- layoutA&#45;&gt;algo -->
<g id="edge12" class="edge"><title>layoutA&#45;&gt;algo</title>
<path fill="none" stroke="black" d="M280.579,-93.7862C302.654,-82.3517 335.917,-65.1223 361.072,-52.0924"/>
</g>
</g>
</svg>
