<?xml version="1.0" encoding="UTF-8" standalone="no"?>
<!DOCTYPE svg PUBLIC "-//W3C//DTD SVG 1.1//EN"
 "http://www.w3.org/Graphics/SVG/1.1/DTD/svg11.dtd">
<!-- Generated by graphviz version 2.26.3 (20100126.1600)
 -->
<!-- Title: Multicore Pages: 1 -->
<svg width="334pt" height="143pt"
 viewBox="0.00 0.00 334.00 143.00" xmlns="http://www.w3.org/2000/svg" xmlns:xlink="http://www.w3.org/1999/xlink">
<g id="graph1" class="graph" transform="scale(1 1) rotate(0) translate(4 139)">
<title>Multicore</title>
<polygon fill="white" stroke="white" points="-4,5 -4,-139 331,-139 331,5 -4,5"/>
<!-- ChildFacade1 -->
<g id="node1" class="node"><title>ChildFacade1</title>
<polygon fill="none" stroke="black" points="326,-135 252,-135 252,-99 326,-99 326,-135"/>
<text text-anchor="middle" x="289" y="-115.3" font-family="Verdana" font-size="8.00">ChildFacade1</text>
</g>
<!-- ChildFacade2 -->
<g id="node2" class="node"><title>ChildFacade2</title>
<polygon fill="none" stroke="black" points="216,-36 142,-36 142,-1.77636e-14 216,-3.55271e-15 216,-36"/>
<text text-anchor="middle" x="179" y="-16.3" font-family="Verdana" font-size="8.00">ChildFacade2</text>
</g>
<!-- ChildFacade3 -->
<g id="node3" class="node"><title>ChildFacade3</title>
<polygon fill="none" stroke="black" points="326,-36 252,-36 252,-1.77636e-14 326,-3.55271e-15 326,-36"/>
<text text-anchor="middle" x="289" y="-16.3" font-family="Verdana" font-size="8.00">ChildFacade3</text>
</g>
<!-- ChildFacade2&#45;&gt;ChildFacade3 -->
<g id="edge16" class="edge"><title>ChildFacade2&#45;&gt;ChildFacade3</title>
<path fill="none" stroke="black" d="M216.241,-18C224.394,-18 233.131,-18 241.62,-18"/>
<polygon fill="black" stroke="black" points="241.797,-21.5001 251.797,-18 241.797,-14.5001 241.797,-21.5001"/>
</g>
<!-- AppFacade -->
<g id="node4" class="node"><title>AppFacade</title>
<polygon fill="none" stroke="black" points="53,-105 1.0523,-87 53,-69 104.948,-87 53,-105"/>
<polyline fill="none" stroke="black" points="12.3909,-90.9289 12.3909,-83.0711 "/>
<polyline fill="none" stroke="black" points="41.6614,-72.9289 64.3386,-72.9289 "/>
<polyline fill="none" stroke="black" points="93.6091,-83.0711 93.6091,-90.9289 "/>
<polyline fill="none" stroke="black" points="64.3386,-101.071 41.6614,-101.071 "/>
<text text-anchor="middle" x="53" y="-85.3" font-family="Verdana" font-size="8.00">AppFacade</text>
</g>
<!-- AppFacade&#45;&gt;ChildFacade1 -->
<g id="edge12" class="edge"><title>AppFacade&#45;&gt;ChildFacade1</title>
<path fill="none" stroke="black" d="M71.5617,-98.7497C88.9827,-109.033 116.158,-123.209 142,-129 174.856,-136.363 212.743,-132.996 241.825,-127.979"/>
<polygon fill="black" stroke="black" points="242.523,-131.409 251.721,-126.151 241.252,-124.526 242.523,-131.409"/>
</g>
<!-- AppFacade&#45;&gt;ChildFacade2 -->
<g id="edge14" class="edge"><title>AppFacade&#45;&gt;ChildFacade2</title>
<path fill="none" stroke="black" d="M73.2441,-75.914C90.4092,-66.514 115.592,-52.7232 137.078,-40.9571"/>
<polygon fill="black" stroke="black" points="138.936,-43.9301 146.026,-36.0571 135.574,-37.7905 138.936,-43.9301"/>
</g>
<!-- Channels -->
<g id="node5" class="node"><title>Channels</title>
<ellipse fill="none" stroke="black" cx="179" cy="-87" rx="32.9651" ry="32.9651"/>
<text text-anchor="middle" x="179" y="-85.3" font-family="Verdana" font-size="8.00">Channels</text>
</g>
<!-- AppFacade&#45;&gt;Channels -->
<g id="edge2" class="edge"><title>AppFacade&#45;&gt;Channels</title>
<path fill="none" stroke="black" d="M87.7636,-80.8928C102.821,-80.1591 120.593,-80.0535 136.432,-80.576"/>
<polygon fill="black" stroke="black" points="136.372,-84.0765 146.513,-81.0097 136.673,-77.083 136.372,-84.0765"/>
</g>
<!-- Channels&#45;&gt;ChildFacade1 -->
<g id="edge4" class="edge"><title>Channels&#45;&gt;ChildFacade1</title>
<path fill="none" stroke="blue" d="M211.112,-95.7579C223.795,-99.2168 238.454,-103.215 251.61,-106.803"/>
</g>
<!-- Channels&#45;&gt;ChildFacade2 -->
<g id="edge6" class="edge"><title>Channels&#45;&gt;ChildFacade2</title>
<path fill="none" stroke="blue" d="M179,-53.9677C179,-47.998 179,-42.0283 179,-36.0586"/>
</g>
<!-- Channels&#45;&gt;ChildFacade3 -->
<g id="edge8" class="edge"><title>Channels&#45;&gt;ChildFacade3</title>
<path fill="none" stroke="blue" d="M207.042,-69.4099C223.337,-59.1884 243.827,-46.3359 260.242,-36.0388"/>
</g>
<!-- Channels&#45;&gt;AppFacade -->
<g id="edge10" class="edge"><title>Channels&#45;&gt;AppFacade</title>
<path fill="none" stroke="blue" d="M146.513,-92.9903C128.509,-93.9626 106.12,-94.0016 87.7636,-93.1072"/>
</g>
</g>
</svg>
