<?xml version="1.0" encoding="UTF-8" standalone="no"?>
<!DOCTYPE svg PUBLIC "-//W3C//DTD SVG 1.1//EN"
 "http://www.w3.org/Graphics/SVG/1.1/DTD/svg11.dtd">
<!-- Generated by graphviz version 2.26.3 (20100126.1600)
 -->
<!-- Title: MVC Pages: 1 -->
<svg width="561pt" height="502pt"
 viewBox="0.00 0.00 560.60 502.26" xmlns="http://www.w3.org/2000/svg" xmlns:xlink="http://www.w3.org/1999/xlink">
<g id="graph1" class="graph" transform="scale(1 1) rotate(0) translate(4 498.262)">
<title>MVC</title>
<polygon fill="white" stroke="white" points="-4,5 -4,-498.262 557.597,-498.262 557.597,5 -4,5"/>
<!-- facade -->
<g id="node1" class="node"><title>facade</title>
<polygon fill="none" stroke="black" points="308.809,-232.541 271.846,-214.541 308.809,-196.541 345.772,-214.541 308.809,-232.541"/>
<polyline fill="none" stroke="black" points="282.635,-219.795 282.635,-209.287 "/>
<polyline fill="none" stroke="black" points="298.021,-201.795 319.598,-201.795 "/>
<polyline fill="none" stroke="black" points="334.983,-209.287 334.983,-219.795 "/>
<polyline fill="none" stroke="black" points="319.598,-227.287 298.021,-227.287 "/>
<text text-anchor="middle" x="308.809" y="-212.841" font-family="Verdana" font-size="8.00">facade</text>
</g>
<!-- model -->
<g id="node3" class="node"><title>model</title>
<ellipse fill="lightskyblue" stroke="lightskyblue" cx="353.8" cy="-279.721" rx="36" ry="36"/>
<text text-anchor="middle" x="353.8" y="-278.021" font-family="Verdana" font-size="8.00">model</text>
</g>
<!-- facade&#45;&gt;model -->
<g id="edge6" class="edge"><title>facade&#45;&gt;model</title>
<path fill="none" stroke="black" d="M318.131,-228.046C322.507,-234.385 327.909,-242.212 333.174,-249.839"/>
</g>
<!-- logic -->
<g id="node7" class="node"><title>logic</title>
<ellipse fill="#9aff9a" stroke="#9aff9a" cx="235.236" cy="-384.76" rx="36" ry="36"/>
<text text-anchor="middle" x="235.236" y="-383.06" font-family="Verdana" font-size="8.00">logic</text>
</g>
<!-- facade&#45;&gt;logic -->
<g id="edge4" class="edge"><title>facade&#45;&gt;logic</title>
<path fill="none" stroke="black" d="M302.28,-229.647C290.534,-256.823 265.582,-314.551 249.652,-351.406"/>
</g>
<!-- view -->
<g id="node10" class="node"><title>view</title>
<ellipse fill="#ff6a6a" stroke="#ff6a6a" cx="235.236" cy="-174.683" rx="36" ry="36"/>
<text text-anchor="middle" x="235.236" y="-172.983" font-family="Verdana" font-size="8.00">view</text>
</g>
<!-- facade&#45;&gt;view -->
<g id="edge2" class="edge"><title>facade&#45;&gt;view</title>
<path fill="none" stroke="black" d="M290.999,-204.892C283.769,-200.976 275.193,-196.329 266.961,-191.87"/>
</g>
<!-- events -->
<g id="node13" class="node"><title>events</title>
<ellipse fill="peachpuff" stroke="peachpuff" cx="443.781" cy="-149.361" rx="36" ry="36"/>
<text text-anchor="middle" x="443.781" y="-147.661" font-family="Verdana" font-size="8.00">events</text>
</g>
<!-- facade&#45;&gt;events -->
<g id="edge8" class="edge"><title>facade&#45;&gt;events</title>
<path fill="none" stroke="black" d="M327.577,-205.478C349.162,-195.054 384.986,-177.754 411.162,-165.113"/>
</g>
<!-- states -->
<g id="node16" class="node"><title>states</title>
<ellipse fill="tan" stroke="tan" cx="507.597" cy="-241.814" rx="36" ry="36"/>
<text text-anchor="middle" x="507.597" y="-240.114" font-family="Verdana" font-size="8.00">states</text>
</g>
<!-- facade&#45;&gt;states -->
<g id="edge10" class="edge"><title>facade&#45;&gt;states</title>
<path fill="none" stroke="black" d="M337.715,-218.507C373.25,-223.382 433.551,-231.655 471.931,-236.92"/>
</g>
<!-- service1 -->
<g id="node2" class="node"><title>service1</title>
<polygon fill="none" stroke="black" points="507.597,-335.629 463.475,-317.629 507.597,-299.629 551.719,-317.629 507.597,-335.629"/>
<text text-anchor="middle" x="507.597" y="-315.929" font-family="Verdana" font-size="8.00">service1</text>
</g>
<!-- proxy1 -->
<g id="node4" class="node"><title>proxy1</title>
<ellipse fill="lightskyblue" stroke="lightskyblue" cx="423.928" cy="-316.527" rx="18" ry="18"/>
<text text-anchor="middle" x="423.928" y="-314.827" font-family="Verdana" font-size="8.00">proxy1</text>
</g>
<!-- model&#45;&gt;proxy1 -->
<g id="edge32" class="edge"><title>model&#45;&gt;proxy1</title>
<path fill="none" stroke="black" d="M385.991,-296.616C393.624,-300.623 401.44,-304.725 407.979,-308.157"/>
</g>
<!-- proxy2 -->
<g id="node5" class="node"><title>proxy2</title>
<ellipse fill="lightskyblue" stroke="lightskyblue" cx="381.885" cy="-353.775" rx="18" ry="18"/>
<text text-anchor="middle" x="381.885" y="-352.075" font-family="Verdana" font-size="8.00">proxy2</text>
</g>
<!-- model&#45;&gt;proxy2 -->
<g id="edge34" class="edge"><title>model&#45;&gt;proxy2</title>
<path fill="none" stroke="black" d="M366.692,-313.714C369.749,-321.774 372.879,-330.028 375.498,-336.933"/>
</g>
<!-- proxy3 -->
<g id="node6" class="node"><title>proxy3</title>
<ellipse fill="lightskyblue" stroke="lightskyblue" cx="344.253" cy="-358.344" rx="18" ry="18"/>
<text text-anchor="middle" x="344.253" y="-356.644" font-family="Verdana" font-size="8.00">proxy3</text>
</g>
<!-- model&#45;&gt;proxy3 -->
<g id="edge36" class="edge"><title>model&#45;&gt;proxy3</title>
<path fill="none" stroke="black" d="M349.418,-315.811C348.379,-324.369 347.315,-333.132 346.425,-340.463"/>
</g>
<!-- proxy1&#45;&gt;service1 -->
<g id="edge44" class="edge"><title>proxy1&#45;&gt;service1</title>
<path fill="none" stroke="black" d="M442.083,-316.766C448.812,-316.855 456.759,-316.96 464.755,-317.065"/>
</g>
<!-- vo1 -->
<g id="node40" class="node"><title>vo1</title>
<polygon fill="lavender" stroke="lavender" points="508.364,-402.76 436.364,-402.76 436.364,-366.76 508.364,-366.76 508.364,-402.76"/>
<text text-anchor="middle" x="472.364" y="-383.06" font-family="Verdana" font-size="8.00">vo1</text>
</g>
<!-- proxy1&#45;&gt;vo1 -->
<g id="edge38" class="edge"><title>proxy1&#45;&gt;vo1</title>
<path fill="none" stroke="black" d="M434.438,-331.333C441.783,-341.68 451.637,-355.562 459.46,-366.581"/>
</g>
<!-- vo2 -->
<g id="node44" class="node"><title>vo2</title>
<polygon fill="lavender" stroke="lavender" points="445.969,-445.828 373.969,-445.828 373.969,-409.828 445.969,-409.828 445.969,-445.828"/>
<text text-anchor="middle" x="409.969" y="-426.128" font-family="Verdana" font-size="8.00">vo2</text>
</g>
<!-- proxy2&#45;&gt;vo2 -->
<g id="edge42" class="edge"><title>proxy2&#45;&gt;vo2</title>
<path fill="none" stroke="black" d="M388.398,-370.95C392.806,-382.572 398.618,-397.898 403.099,-409.712"/>
</g>
<!-- vo3 -->
<g id="node42" class="node"><title>vo3</title>
<polygon fill="lavender" stroke="lavender" points="370.707,-454.966 298.707,-454.966 298.707,-418.966 370.707,-418.966 370.707,-454.966"/>
<text text-anchor="middle" x="334.707" y="-435.266" font-family="Verdana" font-size="8.00">vo3</text>
</g>
<!-- proxy3&#45;&gt;vo3 -->
<g id="edge40" class="edge"><title>proxy3&#45;&gt;vo3</title>
<path fill="none" stroke="black" d="M342.039,-376.579C340.497,-389.281 338.449,-406.15 336.909,-418.83"/>
</g>
<!-- controller1 -->
<g id="node8" class="node"><title>controller1</title>
<ellipse fill="#9aff9a" stroke="#9aff9a" cx="218.828" cy="-475.262" rx="18" ry="18"/>
<text text-anchor="middle" x="218.828" y="-473.562" font-family="Verdana" font-size="8.00">controller1</text>
</g>
<!-- logic&#45;&gt;controller1 -->
<g id="edge24" class="edge"><title>logic&#45;&gt;controller1</title>
<path fill="none" stroke="black" d="M228.798,-420.269C226.5,-432.946 224.007,-446.695 222.089,-457.274"/>
</g>
<!-- controller2 -->
<g id="node9" class="node"><title>controller2</title>
<ellipse fill="#9aff9a" stroke="#9aff9a" cx="143.416" cy="-390.14" rx="18" ry="18"/>
<text text-anchor="middle" x="143.416" y="-388.44" font-family="Verdana" font-size="8.00">controller2</text>
</g>
<!-- logic&#45;&gt;controller2 -->
<g id="edge26" class="edge"><title>logic&#45;&gt;controller2</title>
<path fill="none" stroke="black" d="M199.21,-386.871C186.348,-387.624 172.399,-388.441 161.666,-389.07"/>
</g>
<!-- mediator1 -->
<g id="node11" class="node"><title>mediator1</title>
<ellipse fill="#ff6a6a" stroke="#ff6a6a" cx="116.2" cy="-279.721" rx="18" ry="18"/>
<text text-anchor="middle" x="116.2" y="-278.021" font-family="Verdana" font-size="8.00">mediator1</text>
</g>
<!-- view&#45;&gt;mediator1 -->
<g id="edge12" class="edge"><title>view&#45;&gt;mediator1</title>
<path fill="none" stroke="black" d="M208.225,-198.518C183.805,-220.066 148.854,-250.907 129.822,-267.701"/>
</g>
<!-- mediator2 -->
<g id="node12" class="node"><title>mediator2</title>
<ellipse fill="#ff6a6a" stroke="#ff6a6a" cx="175.954" cy="-122.163" rx="18" ry="18"/>
<text text-anchor="middle" x="175.954" y="-120.463" font-family="Verdana" font-size="8.00">mediator2</text>
</g>
<!-- view&#45;&gt;mediator2 -->
<g id="edge14" class="edge"><title>view&#45;&gt;mediator2</title>
<path fill="none" stroke="black" d="M208.024,-150.575C201.571,-144.858 194.964,-139.005 189.436,-134.107"/>
</g>
<!-- window -->
<g id="node20" class="node"><title>window</title>
<polygon fill="lavender" stroke="lavender" points="361.16,-61.8537 289.16,-61.8537 289.16,-25.8537 361.16,-25.8537 361.16,-61.8537"/>
<text text-anchor="middle" x="325.16" y="-42.1537" font-family="Verdana" font-size="8.00">window</text>
</g>
<!-- view&#45;&gt;window -->
<g id="edge16" class="edge"><title>view&#45;&gt;window</title>
<path fill="none" stroke="black" d="M255.641,-144.996C273.156,-119.513 297.843,-83.5974 312.599,-62.1288"/>
</g>
<!-- gui1 -->
<g id="node17" class="node"><title>gui1</title>
<polygon fill="lavender" stroke="lavender" points="73,-297.721 1,-297.721 1,-261.721 73,-261.721 73,-297.721"/>
<text text-anchor="middle" x="37" y="-278.021" font-family="Verdana" font-size="8.00">gui1</text>
</g>
<!-- mediator1&#45;&gt;gui1 -->
<g id="edge18" class="edge"><title>mediator1&#45;&gt;gui1</title>
<path fill="none" stroke="black" d="M97.8309,-279.721C90.4281,-279.721 81.6199,-279.721 73.0368,-279.721"/>
</g>
<!-- gui2 -->
<g id="node18" class="node"><title>gui2</title>
<polygon fill="lavender" stroke="lavender" points="109.288,-150.497 37.2875,-150.497 37.2875,-114.497 109.288,-114.497 109.288,-150.497"/>
<text text-anchor="middle" x="73.2875" y="-130.797" font-family="Verdana" font-size="8.00">gui2</text>
</g>
<!-- mediator2&#45;&gt;gui2 -->
<g id="edge20" class="edge"><title>mediator2&#45;&gt;gui2</title>
<path fill="none" stroke="black" d="M157.599,-124.011C144.218,-125.358 125.653,-127.226 109.348,-128.867"/>
</g>
<!-- gui3 -->
<g id="node19" class="node"><title>gui3</title>
<polygon fill="lavender" stroke="lavender" points="209.837,-37 137.837,-37 137.837,-1 209.837,-1 209.837,-37"/>
<text text-anchor="middle" x="173.837" y="-17.3" font-family="Verdana" font-size="8.00">gui3</text>
</g>
<!-- mediator2&#45;&gt;gui3 -->
<g id="edge22" class="edge"><title>mediator2&#45;&gt;gui3</title>
<path fill="none" stroke="black" d="M175.575,-103.72C175.19,-84.9421 174.596,-56.0037 174.212,-37.2839"/>
</g>
<!-- signals1 -->
<g id="node14" class="node"><title>signals1</title>
<ellipse fill="peachpuff" stroke="peachpuff" cx="438.054" cy="-57.5614" rx="18" ry="18"/>
<text text-anchor="middle" x="438.054" y="-55.8614" font-family="Verdana" font-size="8.00">signals1</text>
</g>
<!-- events&#45;&gt;signals1 -->
<g id="edge28" class="edge"><title>events&#45;&gt;signals1</title>
<path fill="none" stroke="black" d="M441.534,-113.343C440.732,-100.484 439.862,-86.5383 439.193,-75.8078"/>
</g>
<!-- signals2 -->
<g id="node15" class="node"><title>signals2</title>
<ellipse fill="peachpuff" stroke="peachpuff" cx="531.646" cy="-122.163" rx="18" ry="18"/>
<text text-anchor="middle" x="531.646" y="-120.463" font-family="Verdana" font-size="8.00">signals2</text>
</g>
<!-- events&#45;&gt;signals2 -->
<g id="edge30" class="edge"><title>events&#45;&gt;signals2</title>
<path fill="none" stroke="black" d="M478.256,-138.69C490.564,-134.88 503.911,-130.748 514.182,-127.569"/>
</g>
</g>
</svg>
