<?xml version="1.0" encoding="UTF-8" standalone="no"?>
<!DOCTYPE svg PUBLIC "-//W3C//DTD SVG 1.1//EN"
 "http://www.w3.org/Graphics/SVG/1.1/DTD/svg11.dtd">
<!-- Generated by graphviz version 2.26.3 (20100126.1600)
 -->
<!-- Title: MVC_UML Pages: 1 -->
<svg width="168pt" height="116pt"
 viewBox="0.00 0.00 168.00 116.00" xmlns="http://www.w3.org/2000/svg" xmlns:xlink="http://www.w3.org/1999/xlink">
<g id="graph1" class="graph" transform="scale(1 1) rotate(0) translate(4 112)">
<title>MVC_UML</title>
<polygon fill="white" stroke="white" points="-4,5 -4,-112 165,-112 165,5 -4,5"/>
<!-- Facade -->
<g id="node1" class="node"><title>Facade</title>
<polygon fill="none" stroke="black" points="108,-108 54,-108 54,-72 108,-72 108,-108"/>
<text text-anchor="middle" x="81" y="-88.3" font-family="Verdana" font-size="8.00">Facade</text>
</g>
<!-- ParentFacade -->
<g id="node3" class="node"><title>ParentFacade</title>
<polygon fill="none" stroke="black" points="74,-36 3.55271e-14,-36 0,-1.77636e-14 74,-3.55271e-15 74,-36"/>
<text text-anchor="middle" x="37" y="-16.3" font-family="Verdana" font-size="8.00">ParentFacade</text>
</g>
<!-- Facade&#45;&gt;ParentFacade -->
<g id="edge2" class="edge"><title>Facade&#45;&gt;ParentFacade</title>
<path fill="none" stroke="black" d="M64.6571,-63.257C59.1963,-54.3212 53.2366,-44.569 48.2526,-36.4133"/>
<polygon fill="black" stroke="black" points="61.6959,-65.1236 69.8969,-71.8314 67.6689,-61.4734 61.6959,-65.1236"/>
</g>
<!-- ChildFacade -->
<g id="node5" class="node"><title>ChildFacade</title>
<polygon fill="none" stroke="black" points="160,-36 92,-36 92,-1.77636e-14 160,-3.55271e-15 160,-36"/>
<text text-anchor="middle" x="126" y="-16.3" font-family="Verdana" font-size="8.00">ChildFacade</text>
</g>
<!-- Facade&#45;&gt;ChildFacade -->
<g id="edge4" class="edge"><title>Facade&#45;&gt;ChildFacade</title>
<path fill="none" stroke="black" d="M97.7144,-63.257C103.299,-54.3212 109.394,-44.569 114.492,-36.4133"/>
<polygon fill="black" stroke="black" points="94.6874,-61.4963 92.3554,-71.8314 100.623,-65.2064 94.6874,-61.4963"/>
</g>
</g>
</svg>
