<?xml version="1.0" encoding="UTF-8" standalone="no"?>
<!DOCTYPE svg PUBLIC "-//W3C//DTD SVG 1.1//EN"
 "http://www.w3.org/Graphics/SVG/1.1/DTD/svg11.dtd">
<!-- Generated by graphviz version 2.26.3 (20100126.1600)
 -->
<!-- Title: MVC_UML Pages: 1 -->
<svg width="380pt" height="332pt"
 viewBox="0.00 0.00 380.00 332.00" xmlns="http://www.w3.org/2000/svg" xmlns:xlink="http://www.w3.org/1999/xlink">
<g id="graph1" class="graph" transform="scale(1 1) rotate(0) translate(4 328)">
<title>MVC_UML</title>
<polygon fill="white" stroke="white" points="-4,5 -4,-328 377,-328 377,5 -4,5"/>
<!-- Mediator -->
<g id="node1" class="node"><title>Mediator</title>
<polygon fill="none" stroke="black" points="201,-36 147,-36 147,-1.77636e-14 201,-3.55271e-15 201,-36"/>
<text text-anchor="middle" x="174" y="-16.3" font-family="Verdana" font-size="8.00">Mediator</text>
</g>
<!-- Proxy -->
<g id="node2" class="node"><title>Proxy</title>
<polygon fill="none" stroke="black" points="65,-108 11,-108 11,-72 65,-72 65,-108"/>
<text text-anchor="middle" x="38" y="-88.3" font-family="Verdana" font-size="8.00">Proxy</text>
</g>
<!-- EditableProxy -->
<g id="node3" class="node"><title>EditableProxy</title>
<polygon fill="none" stroke="black" points="75,-36 1,-36 1,-1.77636e-14 75,-3.55271e-15 75,-36"/>
<text text-anchor="middle" x="38" y="-16.3" font-family="Verdana" font-size="8.00">EditableProxy</text>
</g>
<!-- Proxy&#45;&gt;EditableProxy -->
<g id="edge30" class="edge"><title>Proxy&#45;&gt;EditableProxy</title>
<path fill="none" stroke="black" d="M38,-61.5726C38,-53.1084 38,-44.0593 38,-36.4133"/>
<polygon fill="black" stroke="black" points="34.5001,-61.8313 38,-71.8314 41.5001,-61.8314 34.5001,-61.8313"/>
</g>
<!-- MVCActor -->
<g id="node4" class="node"><title>MVCActor</title>
<polygon fill="none" stroke="black" points="202,-108 144,-108 144,-72 202,-72 202,-108"/>
<text text-anchor="middle" x="173" y="-88.3" font-family="Verdana" font-size="8.00">MVCActor</text>
</g>
<!-- MVCActor&#45;&gt;Mediator -->
<g id="edge24" class="edge"><title>MVCActor&#45;&gt;Mediator</title>
<path fill="none" stroke="black" d="M173.395,-61.5726C173.512,-53.1084 173.638,-44.0593 173.744,-36.4133"/>
<polygon fill="black" stroke="black" points="169.892,-61.7837 173.252,-71.8314 176.891,-61.881 169.892,-61.7837"/>
</g>
<!-- MVCNotifier -->
<g id="node5" class="node"><title>MVCNotifier</title>
<polygon fill="none" stroke="black" points="71,-180 5,-180 5,-144 71,-144 71,-180"/>
<text text-anchor="middle" x="38" y="-160.3" font-family="Verdana" font-size="8.00">MVCNotifier</text>
</g>
<!-- MVCNotifier&#45;&gt;Proxy -->
<g id="edge28" class="edge"><title>MVCNotifier&#45;&gt;Proxy</title>
<path fill="none" stroke="black" d="M38,-133.573C38,-125.108 38,-116.059 38,-108.413"/>
<polygon fill="black" stroke="black" points="34.5001,-133.831 38,-143.831 41.5001,-133.831 34.5001,-133.831"/>
</g>
<!-- MVCNotifier&#45;&gt;MVCActor -->
<g id="edge22" class="edge"><title>MVCNotifier&#45;&gt;MVCActor</title>
<path fill="none" stroke="black" d="M79.9697,-139.616C100.749,-128.534 125.315,-115.432 143.983,-105.476"/>
<polygon fill="black" stroke="black" points="78.2012,-136.593 71.0247,-144.387 81.4953,-142.769 78.2012,-136.593"/>
</g>
<!-- Signals -->
<g id="node6" class="node"><title>Signals</title>
<polygon fill="none" stroke="black" points="65,-252 11,-252 11,-216 65,-216 65,-252"/>
<text text-anchor="middle" x="38" y="-232.3" font-family="Verdana" font-size="8.00">Signals</text>
</g>
<!-- Facade -->
<g id="node7" class="node"><title>Facade</title>
<polygon fill="none" stroke="black" points="332,-252 292.873,-234 332,-216 371.127,-234 332,-252"/>
<polyline fill="none" stroke="black" points="303.774,-239.015 303.774,-228.985 "/>
<polyline fill="none" stroke="black" points="321.098,-221.015 342.902,-221.015 "/>
<polyline fill="none" stroke="black" points="360.226,-228.985 360.226,-239.015 "/>
<polyline fill="none" stroke="black" points="342.902,-246.985 321.098,-246.985 "/>
<text text-anchor="middle" x="332" y="-232.3" font-family="Verdana" font-size="8.00">Facade</text>
</g>
<!-- IMVCCore -->
<g id="node8" class="node"><title>IMVCCore</title>
<ellipse fill="#dbdbdb" stroke="#dbdbdb" cx="323" cy="-162" rx="35.9084" ry="18"/>
<text text-anchor="middle" x="323" y="-160.3" font-family="Verdana" font-size="8.00">IMVCCore</text>
</g>
<!-- IMVCCoreActor -->
<g id="node11" class="node"><title>IMVCCoreActor</title>
<ellipse fill="#dbdbdb" stroke="#dbdbdb" cx="323" cy="-90" rx="48.859" ry="18"/>
<text text-anchor="middle" x="323" y="-88.3" font-family="Verdana" font-size="8.00">IMVCCoreActor</text>
</g>
<!-- IMVCCore&#45;&gt;IMVCCoreActor -->
<g id="edge10" class="edge"><title>IMVCCore&#45;&gt;IMVCCoreActor</title>
<path fill="none" stroke="black" stroke-dasharray="5,2" d="M323,-133.573C323,-125.108 323,-116.059 323,-108.413"/>
<polygon fill="black" stroke="black" points="319.5,-133.831 323,-143.831 326.5,-133.831 319.5,-133.831"/>
</g>
<!-- IMVCNotifier -->
<g id="node9" class="node"><title>IMVCNotifier</title>
<ellipse fill="#dbdbdb" stroke="#dbdbdb" cx="179" cy="-234" rx="41.7951" ry="18"/>
<text text-anchor="middle" x="179" y="-232.3" font-family="Verdana" font-size="8.00">IMVCNotifier</text>
</g>
<!-- IMVCNotifier&#45;&gt;MVCNotifier -->
<g id="edge26" class="edge"><title>IMVCNotifier&#45;&gt;MVCNotifier</title>
<path fill="none" stroke="black" stroke-dasharray="5,2" d="M142.735,-215.482C120.618,-204.188 92.5638,-189.862 71.0582,-178.881"/>
<polygon fill="black" stroke="black" points="141.316,-218.687 151.814,-220.118 144.499,-212.453 141.316,-218.687"/>
</g>
<!-- IMVCNotifier&#45;&gt;IMVCCore -->
<g id="edge6" class="edge"><title>IMVCNotifier&#45;&gt;IMVCCore</title>
<path fill="none" stroke="black" stroke-dasharray="5,2" d="M215.421,-215.79C240.91,-203.045 274.344,-186.328 297.131,-174.935"/>
<polygon fill="black" stroke="black" points="213.803,-212.685 206.424,-220.288 216.934,-218.946 213.803,-212.685"/>
</g>
<!-- IMVCActor -->
<g id="node10" class="node"><title>IMVCActor</title>
<ellipse fill="#dbdbdb" stroke="#dbdbdb" cx="179" cy="-162" rx="35.9971" ry="18"/>
<text text-anchor="middle" x="179" y="-160.3" font-family="Verdana" font-size="8.00">IMVCActor</text>
</g>
<!-- IMVCNotifier&#45;&gt;IMVCActor -->
<g id="edge8" class="edge"><title>IMVCNotifier&#45;&gt;IMVCActor</title>
<path fill="none" stroke="black" stroke-dasharray="5,2" d="M179,-205.573C179,-197.108 179,-188.059 179,-180.413"/>
<polygon fill="black" stroke="black" points="175.5,-205.831 179,-215.831 182.5,-205.831 175.5,-205.831"/>
</g>
<!-- IMVCActor&#45;&gt;MVCActor -->
<g id="edge20" class="edge"><title>IMVCActor&#45;&gt;MVCActor</title>
<path fill="none" stroke="black" stroke-dasharray="5,2" d="M176.655,-133.854C175.942,-125.31 175.179,-116.144 174.534,-108.413"/>
<polygon fill="black" stroke="black" points="173.167,-134.157 177.486,-143.831 180.143,-133.575 173.167,-134.157"/>
</g>
<!-- IMVCActor&#45;&gt;IMVCCoreActor -->
<g id="edge12" class="edge"><title>IMVCActor&#45;&gt;IMVCCoreActor</title>
<path fill="none" stroke="black" stroke-dasharray="5,2" d="M213.7,-144.65C238.177,-132.412 270.598,-116.201 293.761,-104.62"/>
<polygon fill="black" stroke="black" points="212.123,-141.525 204.744,-149.128 215.254,-147.786 212.123,-141.525"/>
</g>
<!-- IDisposable -->
<g id="node12" class="node"><title>IDisposable</title>
<ellipse fill="#dbdbdb" stroke="#dbdbdb" cx="187" cy="-306" rx="38.9412" ry="18"/>
<text text-anchor="middle" x="187" y="-304.3" font-family="Verdana" font-size="8.00">IDisposable</text>
</g>
<!-- IDisposable&#45;&gt;Signals -->
<g id="edge16" class="edge"><title>IDisposable&#45;&gt;Signals</title>
<path fill="none" stroke="black" stroke-dasharray="5,2" d="M150.711,-288.465C124.271,-275.688 89.0248,-258.656 65.0334,-247.063"/>
<polygon fill="black" stroke="black" points="149.491,-291.762 160.017,-292.961 152.536,-285.459 149.491,-291.762"/>
</g>
<!-- IDisposable&#45;&gt;Facade -->
<g id="edge14" class="edge"><title>IDisposable&#45;&gt;Facade</title>
<path fill="none" stroke="black" stroke-dasharray="5,2" d="M222.833,-288.207C251.346,-274.049 290.129,-254.791 312.969,-243.45"/>
<polygon fill="black" stroke="black" points="220.995,-285.212 213.595,-292.794 224.108,-291.481 220.995,-285.212"/>
</g>
<!-- IDisposable&#45;&gt;IMVCNotifier -->
<g id="edge2" class="edge"><title>IDisposable&#45;&gt;IMVCNotifier</title>
<path fill="none" stroke="black" stroke-dasharray="5,2" d="M183.873,-277.854C182.923,-269.31 181.905,-260.144 181.046,-252.413"/>
<polygon fill="black" stroke="black" points="180.398,-278.279 184.981,-287.831 187.355,-277.506 180.398,-278.279"/>
</g>
<!-- IDisablable -->
<g id="node13" class="node"><title>IDisablable</title>
<ellipse fill="#dbdbdb" stroke="#dbdbdb" cx="38" cy="-306" rx="37.7662" ry="18"/>
<text text-anchor="middle" x="38" y="-304.3" font-family="Verdana" font-size="8.00">IDisablable</text>
</g>
<!-- IDisablable&#45;&gt;Signals -->
<g id="edge18" class="edge"><title>IDisablable&#45;&gt;Signals</title>
<path fill="none" stroke="black" stroke-dasharray="5,2" d="M38,-277.573C38,-269.108 38,-260.059 38,-252.413"/>
<polygon fill="black" stroke="black" points="34.5001,-277.831 38,-287.831 41.5001,-277.831 34.5001,-277.831"/>
</g>
<!-- IDisablable&#45;&gt;IMVCNotifier -->
<g id="edge4" class="edge"><title>IDisablable&#45;&gt;IMVCNotifier</title>
<path fill="none" stroke="black" stroke-dasharray="5,2" d="M72.7975,-288.231C97.198,-275.771 129.351,-259.353 151.861,-247.858"/>
<polygon fill="black" stroke="black" points="71.1759,-285.129 63.8616,-292.794 74.3594,-291.363 71.1759,-285.129"/>
</g>
</g>
</svg>
