<?xml version="1.0" encoding="UTF-8" standalone="no"?>
<!DOCTYPE svg PUBLIC "-//W3C//DTD SVG 1.1//EN"
 "http://www.w3.org/Graphics/SVG/1.1/DTD/svg11.dtd">
<!-- Generated by graphviz version 2.26.3 (20100126.1600)
 -->
<!-- Title: VirtualLayoutActors Pages: 1 -->
<svg width="598pt" height="314pt"
 viewBox="0.00 0.00 598.00 314.00" xmlns="http://www.w3.org/2000/svg" xmlns:xlink="http://www.w3.org/1999/xlink">
<g id="graph1" class="graph" transform="scale(1 1) rotate(0) translate(4 310)">
<title>VirtualLayoutActors</title>
<polygon fill="white" stroke="white" points="-4,5 -4,-310 595,-310 595,5 -4,5"/>
<g id="graph2" class="cluster"><title>cluster_0</title>
<polygon fill="lightgrey" stroke="lightgrey" points="340,-152 340,-298 582,-298 582,-152 340,-152"/>
<text text-anchor="middle" x="461" y="-285" font-family="Verdana" font-size="10.00">Application</text>
</g>
<g id="graph3" class="cluster"><title>cluster_1</title>
<polygon fill="none" stroke="blue" points="8,-8 8,-225 332,-225 332,-8 8,-8"/>
<text text-anchor="middle" x="170" y="-212" font-family="Verdana" font-size="10.00">LayoutClients</text>
</g>
<!-- contA -->
<g id="node2" class="node"><title>contA</title>
<ellipse fill="white" stroke="white" cx="422" cy="-251" rx="37.0858" ry="18"/>
<text text-anchor="middle" x="422" y="-249.3" font-family="Verdana" font-size="8.00">MenuBar A</text>
</g>
<!-- buttonB -->
<g id="node3" class="node"><title>buttonB</title>
<ellipse fill="white" stroke="white" cx="379" cy="-178" rx="31.1991" ry="18"/>
<text text-anchor="middle" x="379" y="-176.3" font-family="Verdana" font-size="8.00">Button B</text>
</g>
<!-- contA&#45;&gt;buttonB -->
<g id="edge3" class="edge"><title>contA&#45;&gt;buttonB</title>
<path fill="none" stroke="black" d="M411.591,-233.329C406.468,-224.631 400.187,-213.969 394.512,-204.334"/>
<polygon fill="black" stroke="black" points="397.404,-202.348 389.313,-195.509 391.373,-205.901 397.404,-202.348"/>
</g>
<!-- buttonC -->
<g id="node4" class="node"><title>buttonC</title>
<ellipse fill="white" stroke="white" cx="460" cy="-178" rx="31.7878" ry="18"/>
<text text-anchor="middle" x="460" y="-176.3" font-family="Verdana" font-size="8.00">Button C</text>
</g>
<!-- contA&#45;&gt;buttonC -->
<g id="edge5" class="edge"><title>contA&#45;&gt;buttonC</title>
<path fill="none" stroke="black" d="M431.199,-233.329C435.68,-224.721 441.162,-214.189 446.137,-204.632"/>
<polygon fill="black" stroke="black" points="449.373,-205.995 450.886,-195.509 443.164,-202.763 449.373,-205.995"/>
</g>
<!-- buttonD -->
<g id="node5" class="node"><title>buttonD</title>
<ellipse fill="white" stroke="white" cx="542" cy="-178" rx="31.7878" ry="18"/>
<text text-anchor="middle" x="542" y="-176.3" font-family="Verdana" font-size="8.00">Button D</text>
</g>
<!-- contA&#45;&gt;buttonD -->
<g id="edge7" class="edge"><title>contA&#45;&gt;buttonD</title>
<path fill="none" stroke="black" d="M456.469,-243.952C471.018,-239.925 487.644,-233.86 501,-225 509.614,-219.286 517.506,-211.297 524.015,-203.525"/>
<polygon fill="black" stroke="black" points="527.062,-205.314 530.505,-195.294 521.565,-200.979 527.062,-205.314"/>
</g>
<!-- layoutA -->
<g id="node10" class="node"><title>layoutA</title>
<ellipse fill="lightgrey" stroke="black" cx="284" cy="-178" rx="40.0291" ry="18"/>
<text text-anchor="middle" x="284" y="-176.3" font-family="Verdana" font-size="8.00">Container A</text>
</g>
<!-- contA&#45;&gt;layoutA -->
<g id="edge22" class="edge"><title>contA&#45;&gt;layoutA</title>
<path fill="none" stroke="black" stroke-dasharray="5,2" d="M387.524,-244.268C371.218,-240.179 351.889,-233.977 336,-225 322.015,-217.099 308.627,-204.85 298.938,-194.837"/>
</g>
<!-- layoutB -->
<g id="node12" class="node"><title>layoutB</title>
<ellipse fill="lightgrey" stroke="black" cx="292" cy="-106" rx="31.7878" ry="18"/>
<text text-anchor="middle" x="292" y="-104.3" font-family="Verdana" font-size="8.00">Layout B</text>
</g>
<!-- buttonB&#45;&gt;layoutB -->
<g id="edge24" class="edge"><title>buttonB&#45;&gt;layoutB</title>
<path fill="none" stroke="black" stroke-dasharray="5,2" d="M360.974,-163.082C346.042,-150.725 324.928,-133.251 310.003,-120.899"/>
</g>
<!-- layoutC -->
<g id="node13" class="node"><title>layoutC</title>
<ellipse fill="none" stroke="black" cx="191" cy="-34" rx="31.8784" ry="18"/>
<text text-anchor="middle" x="191" y="-32.3" font-family="Verdana" font-size="8.00">Layout C</text>
</g>
<!-- buttonC&#45;&gt;layoutC -->
<g id="edge26" class="edge"><title>buttonC&#45;&gt;layoutC</title>
<path fill="none" stroke="black" stroke-dasharray="5,2" d="M442.027,-163.024C418.25,-143.753 374.489,-110.128 333,-88 312.637,-77.1397 253.757,-55.8932 218.536,-43.5355"/>
</g>
<!-- layoutD -->
<g id="node14" class="node"><title>layoutD</title>
<ellipse fill="none" stroke="black" cx="285" cy="-34" rx="31.8784" ry="18"/>
<text text-anchor="middle" x="285" y="-32.3" font-family="Verdana" font-size="8.00">Layout D</text>
</g>
<!-- buttonD&#45;&gt;layoutD -->
<g id="edge28" class="edge"><title>buttonD&#45;&gt;layoutD</title>
<path fill="none" stroke="black" stroke-dasharray="5,2" d="M524.388,-162.738C501.512,-143.465 459.783,-110.151 420,-88 384.823,-68.4135 341.074,-52.2715 313.091,-42.885"/>
</g>
<!-- layoutE -->
<g id="node11" class="node"><title>layoutE</title>
<ellipse fill="none" stroke="black" cx="185" cy="-106" rx="57.1873" ry="18"/>
<text text-anchor="middle" x="185" y="-104.3" font-family="Verdana" font-size="8.00">Virtual Container E</text>
</g>
<!-- layoutA&#45;&gt;layoutE -->
<g id="edge12" class="edge"><title>layoutA&#45;&gt;layoutE</title>
<path fill="none" stroke="black" d="M262.518,-162.377C249.018,-152.558 231.37,-139.724 216.325,-128.781"/>
<polygon fill="black" stroke="black" points="217.963,-125.646 207.817,-122.595 213.846,-131.307 217.963,-125.646"/>
</g>
<!-- layoutA&#45;&gt;layoutB -->
<g id="edge10" class="edge"><title>layoutA&#45;&gt;layoutB</title>
<path fill="none" stroke="black" d="M286.019,-159.831C286.874,-152.131 287.892,-142.974 288.843,-134.417"/>
<polygon fill="black" stroke="black" points="292.328,-134.739 289.954,-124.413 285.371,-133.966 292.328,-134.739"/>
</g>
<!-- algo1 -->
<g id="node15" class="node"><title>algo1</title>
<polygon fill="lightblue" stroke="lightblue" points="226,-196 130,-196 130,-160 226,-160 226,-196"/>
<text text-anchor="middle" x="178" y="-176.3" font-family="Verdana" font-size="8.00">float&#45;left&#45;algorithm</text>
</g>
<!-- layoutA&#45;&gt;algo1 -->
<g id="edge18" class="edge"><title>layoutA&#45;&gt;algo1</title>
<path fill="none" stroke="black" d="M243.694,-178C237.806,-178 231.919,-178 226.031,-178"/>
</g>
<!-- layoutE&#45;&gt;layoutC -->
<g id="edge14" class="edge"><title>layoutE&#45;&gt;layoutC</title>
<path fill="none" stroke="black" d="M186.514,-87.8314C187.156,-80.131 187.919,-70.9743 188.632,-62.4166"/>
<polygon fill="black" stroke="black" points="192.123,-62.6694 189.466,-52.4133 185.147,-62.088 192.123,-62.6694"/>
</g>
<!-- layoutE&#45;&gt;layoutD -->
<g id="edge16" class="edge"><title>layoutE&#45;&gt;layoutD</title>
<path fill="none" stroke="black" d="M208.193,-89.3008C222.701,-78.8556 241.483,-65.3326 256.842,-54.2739"/>
<polygon fill="black" stroke="black" points="258.904,-57.1023 264.974,-48.4188 254.813,-51.4215 258.904,-57.1023"/>
</g>
<!-- algo2 -->
<g id="node16" class="node"><title>algo2</title>
<polygon fill="lightblue" stroke="lightblue" points="112,-196 16,-196 16,-160 112,-160 112,-196"/>
<text text-anchor="middle" x="64" y="-176.3" font-family="Verdana" font-size="8.00">float&#45;top&#45;algorithm</text>
</g>
<!-- layoutE&#45;&gt;algo2 -->
<g id="edge20" class="edge"><title>layoutE&#45;&gt;algo2</title>
<path fill="none" stroke="black" d="M158.184,-121.957C139.355,-133.161 114.136,-148.167 94.5334,-159.831"/>
</g>
</g>
</svg>
